<?xml version="1.0" encoding="UTF-8"?>
<svg id="Capa_2" data-name="Capa 2" xmlns="http://www.w3.org/2000/svg" viewBox="0 0 27 27">
  <defs>
    <style>
      .cls-1 {
        fill: #1d1d1b;
      }
    </style>
  </defs>
  <g id="Capa_1-2" data-name="Capa 1">
    <path class="cls-1" d="m19.7,0H7.3C3.27,0,0,3.27,0,7.3v12.41c0,4.03,3.27,7.3,7.3,7.3h12.41c4.02,0,7.3-3.27,7.3-7.3V7.3c0-4.02-3.27-7.3-7.3-7.3Zm.9,19.36c-.13.29-.37.5-.61.7-.54.42-1.14.73-1.81.87-.79.17-1.56.09-2.31-.2-1.18-.43-2.37-.86-3.45-1.52-1.17-.71-2.17-1.62-3.07-2.64-1.02-1.17-1.9-2.44-2.62-3.81-.43-.82-.69-1.69-.7-2.39.01-1.58.55-2.68,1.55-3.55.36-.32.79-.36,1.25-.3.15.02.29.04.44.03.3-.02.49.13.62.38.14.27.23.57.34.86.29.77.58,1.54.87,2.31.09.22.07.43-.04.64-.22.45-.59.79-.92,1.15-.03.04-.07.07-.11.11-.24.25-.27.42-.11.73.27.52.6,1,.94,1.47,1,1.33,2.25,2.34,3.76,3.04.13.06.26.13.39.19.23.09.44.06.61-.13.43-.46.85-.92,1.23-1.41.26-.33.43-.38.81-.22.46.19.9.44,1.34.67.53.28,1.06.58,1.6.85.28.15.41.34.39.67-.04.52-.16,1.02-.38,1.49Z"/>
  </g>
</svg>