<?xml version="1.0" encoding="UTF-8"?>
<svg id="Capa_2" data-name="Capa 2" xmlns="http://www.w3.org/2000/svg" viewBox="0 0 27 27">
  <defs>
    <style>
      .cls-1 {
        fill: #1d1d1b;
      }
    </style>
  </defs>
  <g id="Capa_1-2" data-name="Capa 1">
    <g>
      <polygon class="cls-1" points="18.45 8.8 13.51 12.37 8.68 8.8 18.45 8.8"/>
      <path class="cls-1" d="m20.36,9.67v8.53H6.64v-8.64l6.32,4.67c.16.12.35.18.54.18s.37-.06.53-.17l6.33-4.57Z"/>
      <path class="cls-1" d="m19.7,0H7.3C3.27,0,0,3.27,0,7.3v12.41c0,4.03,3.27,7.3,7.3,7.3h12.41c4.02,0,7.3-3.27,7.3-7.3V7.3c0-4.02-3.27-7.3-7.3-7.3Zm2.47,18.92c0,.61-.49,1.1-1.1,1.1H5.92c-.61,0-1.1-.49-1.1-1.1v-10.83c0-.61.49-1.1,1.1-1.1h15.15c.61,0,1.1.49,1.1,1.1v10.83Z"/>
    </g>
  </g>
</svg>