<?xml version="1.0" encoding="UTF-8"?>
<svg id="Capa_2" data-name="Capa 2" xmlns="http://www.w3.org/2000/svg" viewBox="0 0 27 27">
  <defs>
    <style>
      .cls-1 {
        fill: #1d1d1b;
      }
    </style>
  </defs>
  <g id="Capa_1-2" data-name="Capa 1">
    <g>
      <path class="cls-1" d="m15.53,9.9c.56.56.84,1.3.84,2.03s-.28,1.47-.84,2.03c-.56.56-1.3.84-2.03.84s-1.47-.28-2.03-.84c-.56-.56-.84-1.3-.84-2.03s.28-1.48.84-2.03c1.12-1.12,2.95-1.12,4.07,0Z"/>
      <path class="cls-1" d="m19.7,0H7.3C3.27,0,0,3.27,0,7.3v12.41c0,4.03,3.27,7.3,7.3,7.3h12.41c4.02,0,7.3-3.27,7.3-7.3V7.3c0-4.02-3.27-7.3-7.3-7.3Zm-1.77,16.37l-4.43,4.43-4.43-4.43c-2.44-2.44-2.44-6.43,0-8.87,2.44-2.44,6.43-2.44,8.87,0,1.22,1.22,1.83,2.83,1.83,4.43s-.61,3.21-1.83,4.43Z"/>
      <path class="cls-1" d="m16.37,11.94c0,.73-.28,1.47-.84,2.03-.56.56-1.3.84-2.03.84s-1.47-.28-2.03-.84c-.56-.56-.84-1.3-.84-2.03s.28-1.48.84-2.03c1.12-1.12,2.95-1.12,4.07,0,.56.56.84,1.3.84,2.03Z"/>
      <path class="cls-1" d="m16.37,11.94c0,.73-.28,1.47-.84,2.03-.56.56-1.3.84-2.03.84s-1.47-.28-2.03-.84c-.56-.56-.84-1.3-.84-2.03s.28-1.48.84-2.03c1.12-1.12,2.95-1.12,4.07,0,.56.56.84,1.3.84,2.03Z"/>
    </g>
  </g>
</svg>