<?xml version="1.0" encoding="UTF-8"?>
<svg id="Capa_2" data-name="Capa 2" xmlns="http://www.w3.org/2000/svg" viewBox="0 0 51 51">
  <defs>
    <style>
      .cls-1 {
        fill: #4cbbbd;
      }
    </style>
  </defs>
  <g id="Capa_1-2" data-name="Capa 1">
    <g>
      <path class="cls-1" d="m37.22,51H13.78c-7.6,0-13.78-6.18-13.78-13.78V13.78C0,6.18,6.18,0,13.78,0h23.44c7.6,0,13.78,6.18,13.78,13.78v23.44c0,7.6-6.18,13.78-13.78,13.78ZM13.78,5.87c-4.36,0-7.91,3.55-7.91,7.91v23.44c0,4.36,3.55,7.91,7.91,7.91h23.44c4.36,0,7.91-3.55,7.91-7.91V13.78c0-4.36-3.55-7.91-7.91-7.91H13.78Z"/>
      <path class="cls-1" d="m25.5,36.6c-6.12,0-11.1-4.98-11.1-11.1s4.98-11.1,11.1-11.1,11.1,4.98,11.1,11.1-4.98,11.1-11.1,11.1Zm0-16.32c-2.88,0-5.22,2.34-5.22,5.22s2.34,5.22,5.22,5.22,5.22-2.34,5.22-5.22-2.34-5.22-5.22-5.22Z"/>
      <rect class="cls-1" x="35.12" y="9.54" width="5.78" height="5.78" rx="2.89" ry="2.89"/>
    </g>
  </g>
</svg>