<?xml version="1.0" encoding="UTF-8"?>
<svg id="Capa_2" data-name="Capa 2" xmlns="http://www.w3.org/2000/svg" viewBox="0 0 51 50.99">
  <defs>
    <style>
      .cls-1 {
        fill: #4cbbbd;
      }
    </style>
  </defs>
  <g id="Capa_1-2" data-name="Capa 1">
    <path class="cls-1" d="m37.22,0H13.78C6.18,0,0,6.18,0,13.78v23.43c0,7.6,6.18,13.78,13.78,13.78h23.43c7.6,0,13.78-6.18,13.78-13.78V13.78c0-7.6-6.18-13.78-13.78-13.78Zm2.78,16.07c.66-.2,1.29-.47,1.98-.73-.48.71-.9,1.41-1.43,2.04-.36.43-.76.81-1.22,1.14-.08.06-.12.13-.12.24.03.4.02.8.03,1.19,0,.5-.02,1.01-.06,1.51-.04.39-.08.78-.13,1.18-.09.74-.24,1.47-.44,2.19-.3,1.12-.7,2.21-1.21,3.26-.57,1.19-1.26,2.31-2.06,3.36-.64.84-1.38,1.6-2.15,2.31-.95.88-1.99,1.61-3.11,2.25-1.16.67-2.38,1.2-3.65,1.6-.9.28-1.81.5-2.75.65-.73.11-1.45.2-2.19.25-.34.02-.69-.02-1.03.04-.6.09-1.19-.02-1.78-.02-.56,0-1.13-.08-1.7-.15-1.02-.11-2.03-.3-3.01-.54-1.11-.27-2.19-.64-3.23-1.11-.59-.26-1.15-.57-1.72-.91.08-.06.15-.05.21-.04.57.09,1.14-.03,1.72-.01.61.02,1.22-.08,1.83-.15.88-.11,1.75-.27,2.61-.5.85-.23,1.69-.5,2.5-.87.64-.28,1.25-.62,1.83-1.02.07-.05.12-.1.21-.17-.23-.02-.45-.03-.66-.04-.77-.05-1.53-.21-2.28-.39-.77-.2-1.52-.46-2.23-.81-.8-.39-1.54-.87-2.14-1.54-.35-.38-.62-.82-.79-1.34,1.32-.04,2.61-.12,3.81-.72-3.36-.74-5.35-3.18-5.28-6.15,1.28.6,2.57,1.18,4,1.33-.37-.32-.75-.61-1.11-.93-.24-.21-.48-.44-.69-.67-.45-.49-.87-1.01-1.22-1.58-.47-.77-.83-1.59-.94-2.49-.12-.98.05-1.93.38-2.86.13-.37.32-.7.5-1.06.22.25.44.48.64.73.22.26.45.53.7.78.35.35.7.71,1.06,1.06.95.93,1.98,1.76,3.07,2.53.85.61,1.75,1.13,2.67,1.6.98.49,2.01.9,3.08,1.17.71.18,1.42.32,2.17.35.21.01.42.03.63.04.16.01.2-.04.2-.19-.01-.97-.02-1.94,0-2.91.02-.84.21-1.66.52-2.45.34-.84.8-1.6,1.43-2.23.87-.87,1.9-1.46,3.12-1.71.62-.12,1.25-.15,1.88-.11,1.23.08,2.39.39,3.42,1.1.28.2.55.42.8.66.09.08.16.1.27.08,1.56-.35,3.06-.88,4.51-1.56.17-.08.34-.18.54-.28-.16.47-.4.85-.67,1.21-.31.39-.63.76-1,1.09-.72.64-1.48,1.24-2.31,1.74.2.07,1.13-.15,2-.4Z"/>
  </g>
</svg>