<?xml version="1.0" encoding="UTF-8"?>
<svg id="Capa_2" data-name="Capa 2" xmlns="http://www.w3.org/2000/svg" viewBox="0 0 27 27">
  <defs>
    <style>
      .cls-1 {
        fill: #1d1d1b;
      }
    </style>
  </defs>
  <g id="Capa_1-2" data-name="Capa 1">
    <g>
      <path class="cls-1" d="m19.24,12.19c-.24-1.3-.88-2.38-1.88-3.24-1.29-1.1-2.79-1.52-4.47-1.3-1.01.14-1.93.53-2.71,1.19-1.6,1.34-2.29,3.05-2.07,5.13.1.93.45,1.77.99,2.53.02.03.03.06.02.1-.21.63-.42,1.26-.64,1.89-.01.05-.03.09-.05.15.04,0,.06-.01.08-.02.67-.21,1.34-.43,2.01-.64.05-.02.09-.01.14.02.74.47,1.53.75,2.4.85.59.07,1.18.04,1.76-.08,1.36-.29,2.48-.97,3.32-2.07,1.03-1.34,1.39-2.85,1.09-4.51Zm-2.2,3.67c-.06.13-.17.23-.28.32-.25.19-.52.34-.84.4-.37.08-.72.04-1.07-.09-.55-.2-1.09-.4-1.59-.7-.54-.33-1-.74-1.42-1.22-.47-.54-.88-1.13-1.21-1.76-.2-.38-.32-.78-.33-1.1,0-.73.25-1.24.72-1.64.17-.15.37-.17.58-.14.07,0,.13.02.2.01.14,0,.23.06.29.18.07.13.11.26.16.39.14.36.27.71.4,1.07.04.1.03.2-.02.3-.1.21-.27.37-.42.53-.02.02-.03.03-.05.05-.11.11-.13.19-.05.33.13.24.27.46.44.68.46.61,1.04,1.08,1.74,1.4.06.03.12.06.18.09.1.04.2.03.28-.06.2-.21.39-.42.57-.65.12-.15.2-.18.37-.1.21.09.41.2.62.31.25.13.49.27.74.39.13.07.19.16.18.31-.02.24-.08.47-.18.69Z"/>
      <path class="cls-1" d="m19.7,0H7.3C3.27,0,0,3.27,0,7.3v12.41c0,4.03,3.27,7.3,7.3,7.3h12.41c4.02,0,7.3-3.27,7.3-7.3V7.3c0-4.02-3.27-7.3-7.3-7.3Zm.13,17.77c-1.18,1.6-2.77,2.59-4.72,2.97-.47.09-.94.13-1.39.13-1.3,0-2.5-.3-3.63-.91-.05-.03-.1-.03-.16-.01-1.34.43-2.68.86-4.02,1.29,0,0-.01,0-.02,0-.03,0-.06.04-.08.01-.02-.02,0-.05.01-.08.1-.3.2-.6.3-.89.34-1.02.68-2.03,1.03-3.05.02-.04,0-.07-.01-.11-.45-.76-.76-1.57-.92-2.43-.11-.59-.16-1.19-.13-1.79.05-1.06.3-2.07.77-3.02.8-1.62,2.02-2.81,3.66-3.58.81-.38,1.66-.6,2.56-.67,2.13-.16,4.01.44,5.62,1.83,1.3,1.12,2.14,2.53,2.48,4.21.45,2.22.01,4.27-1.33,6.1Z"/>
    </g>
  </g>
</svg>