<?xml version="1.0" encoding="UTF-8"?>
<svg id="Capa_2" data-name="Capa 2" xmlns="http://www.w3.org/2000/svg" viewBox="0 0 51 51">
  <defs>
    <style>
      .cls-1 {
        fill: #4cbbbd;
      }
    </style>
  </defs>
  <g id="Capa_1-2" data-name="Capa 1">
    <g>
      <path class="cls-1" d="m33.15,32.11c0,.88-.85,1.38-1.53.97-.66-.39-1.35-.75-2.06-1.05-1.14-.47-2.33-.8-3.55-.99-.87-.14-1.74-.22-2.62-.23-.82-.02-1.63.01-2.44.08-1.1.1-2.19.28-3.28.5-.22.05-.45.12-.68.12-.49,0-.92-.36-.99-.83-.08-.49.19-.97.65-1.13.32-.11.65-.16.97-.22.93-.19,1.86-.33,2.8-.43,1.11-.12,2.23-.16,3.35-.12,1.76.06,3.49.33,5.17.86,1.3.41,2.54.97,3.7,1.69.33.2.49.5.5.78Z"/>
      <path class="cls-1" d="m35,28.28c-.36.59-1.13.8-1.74.43-1.37-.83-2.84-1.44-4.38-1.88-.97-.28-1.95-.48-2.95-.62-1.1-.16-2.21-.23-3.32-.23-.9,0-1.8.06-2.7.18-1.01.13-2,.34-2.98.63-.75.22-1.5-.25-1.62-1.02-.1-.61.27-1.22.86-1.4.77-.24,1.55-.42,2.35-.56.76-.14,1.53-.24,2.29-.3.65-.05,1.3-.07,1.94-.07.72,0,1.43.03,2.15.09,1.78.16,3.53.48,5.23,1.02,1.55.49,3.05,1.13,4.44,1.99.6.37.78,1.14.42,1.75Z"/>
      <path class="cls-1" d="m37.46,22.62c-.11.62-.62,1.11-1.26,1.22-.34.06-.67,0-.96-.17-1.55-.92-3.22-1.53-4.96-1.97-.81-.21-1.64-.37-2.47-.49-.78-.12-1.57-.21-2.36-.27-1.41-.11-2.82-.11-4.24-.03-1.1.06-2.19.2-3.27.4-.59.11-1.17.25-1.74.42-.99.31-1.96-.36-2.01-1.4-.03-.67.39-1.28,1.04-1.49.72-.23,1.46-.4,2.21-.54.93-.18,1.86-.3,2.8-.38.72-.06,1.45-.1,2.17-.11h.68c.88,0,1.76.02,2.64.09,1.05.08,2.08.21,3.12.39,1.64.28,3.24.69,4.8,1.27,1.06.39,2.08.87,3.05,1.44.58.34.88.96.76,1.62Z"/>
      <path class="cls-1" d="m37.22,0H13.78C6.18,0,0,6.18,0,13.78v23.43c0,7.6,6.18,13.78,13.78,13.78h23.44c7.6,0,13.78-6.18,13.78-13.78V13.78c0-7.6-6.19-13.78-13.78-13.78Zm4.65,26.16s-.01.07-.01.11c0,.38-.01.76-.05,1.13-.1.93-.28,1.83-.55,2.73-.24.81-.54,1.61-.9,2.37-.51,1.07-1.12,2.08-1.84,3.01-.29.38-.6.74-.93,1.1-.26.29-.53.56-.81.83-.55.52-1.14,1-1.76,1.45-.51.37-1.05.7-1.6,1.01-.47.25-.94.49-1.43.69-.38.17-.77.32-1.17.46-.36.12-.72.23-1.08.33-.35.09-.69.18-1.05.24-.47.09-.93.17-1.4.21-.35.03-.7.04-1.05.04-.04,0-.08-.02-.11,0h-1.22s-.08,0-.11,0c-.37,0-.74-.01-1.1-.05-.39-.03-.77-.09-1.16-.17-.76-.13-1.5-.33-2.23-.58-.61-.2-1.2-.44-1.78-.71-.75-.35-1.47-.77-2.16-1.22-.54-.36-1.06-.77-1.55-1.19-.44-.38-.86-.78-1.25-1.2-.56-.59-1.06-1.21-1.52-1.88-.46-.65-.87-1.34-1.22-2.05-.37-.75-.68-1.51-.93-2.3-.27-.84-.47-1.69-.6-2.56-.06-.41-.1-.82-.11-1.23,0-.19.01-.39-.02-.58v-1.31s0-.07,0-.11c0-.35.01-.71.04-1.06.04-.4.1-.8.18-1.2.11-.61.26-1.22.44-1.81.23-.74.52-1.47.84-2.17.36-.76.78-1.49,1.24-2.18.36-.53.76-1.04,1.18-1.53.38-.44.79-.85,1.21-1.26.39-.37.81-.72,1.23-1.05.52-.4,1.07-.77,1.64-1.1.51-.31,1.05-.59,1.6-.83.36-.17.74-.32,1.11-.46.48-.18.96-.33,1.45-.46.56-.15,1.13-.26,1.71-.36.41-.06.82-.1,1.24-.11.2,0,.39,0,.59-.02h1.31s.08,0,.11,0c.35,0,.69.01,1.04.04.41.04.82.1,1.22.18.67.12,1.33.29,1.97.5.81.25,1.59.58,2.34.95,1.04.52,2.02,1.15,2.92,1.87.62.49,1.19,1.03,1.73,1.61.55.59,1.06,1.22,1.52,1.89.47.68.89,1.39,1.25,2.14.33.69.62,1.41.86,2.14.19.58.34,1.16.46,1.76.12.61.23,1.22.24,1.84.01.24.02.48.02.72,0,.03-.01.05.01.07v1.31Z"/>
    </g>
  </g>
</svg>